<svg width="24" height="24" viewBox="0 0 24 24" fill="none" xmlns="http://www.w3.org/2000/svg">
<g id="Facebook">
<g id="Group 22">
<path id="c" d="M21.9996 11.9998C21.9996 6.47711 17.5225 2 11.9998 2C6.47711 2 2 6.47711 2 11.9998C2 16.6893 5.22874 20.6244 9.58425 21.7052V15.0557H7.52229V11.9998H9.58425V10.683C9.58425 7.27949 11.1246 5.70193 14.4662 5.70193C15.0997 5.70193 16.1929 5.82632 16.6401 5.95032V8.72026C16.4041 8.69547 15.9941 8.68307 15.4849 8.68307C13.8454 8.68307 13.2118 9.30425 13.2118 10.919V11.9998H16.4781L15.9169 15.0557H13.2118V21.9264C18.1633 21.3284 22 17.1125 22 11.9998H21.9996Z" fill="#0866FF"/>
<path id="d" d="M15.9166 15.0557L16.4778 11.9998H13.2115V10.919C13.2115 9.30423 13.845 8.68304 15.4846 8.68304C15.9938 8.68304 16.4038 8.69544 16.6398 8.72024V5.9503C16.1926 5.8259 15.0994 5.7019 14.4658 5.7019C11.1243 5.7019 9.58393 7.27947 9.58393 10.683V11.9998H7.52197V15.0557H9.58393V21.7052C10.3575 21.8972 11.1667 21.9996 11.9995 21.9996C12.4095 21.9996 12.8139 21.9744 13.2111 21.9264V15.0557H15.9162H15.9166Z" fill="white"/>
</g>
</g>
</svg>
