<svg width="64" height="64" viewBox="0 0 64 64" fill="none" xmlns="http://www.w3.org/2000/svg">
<g clip-path="url(#clip0_278_1425)">
<path d="M31.9999 5.3335C46.7279 5.3335 58.6666 17.2722 58.6666 32.0002V42.0375C58.6666 43.0281 58.3906 43.9992 57.8697 44.8418C57.3487 45.6845 56.6034 46.3653 55.7173 46.8082L47.9999 50.6668V53.3335C48 55.3741 47.2204 57.3375 45.8205 58.8222C44.4206 60.3068 42.5063 61.2005 40.4693 61.3202L39.8666 61.3335C39.9252 61.0431 39.9644 60.7491 39.9839 60.4535L39.9999 60.0002V58.6668C40.0003 57.3213 39.4922 56.0253 38.5773 55.0387C37.6624 54.0521 36.4083 53.4477 35.0666 53.3468L34.6666 53.3335H29.3333C27.9877 53.3331 26.6917 53.8412 25.7051 54.7562C24.7185 55.6711 24.1142 56.9251 24.0133 58.2668L23.9999 58.6668V60.0002C23.9999 60.4562 24.0453 60.9042 24.1333 61.3335H23.9999C21.8782 61.3335 19.8434 60.4906 18.3431 58.9904C16.8428 57.4901 15.9999 55.4552 15.9999 53.3335V50.6668L8.28259 46.8082C7.39601 46.3651 6.65042 45.6838 6.12946 44.8407C5.6085 43.9976 5.33279 43.0259 5.33325 42.0348V32.0002C5.33325 17.2722 17.2719 5.3335 31.9999 5.3335ZM21.3333 29.3335C19.9188 29.3335 18.5622 29.8954 17.562 30.8956C16.5618 31.8958 15.9999 33.2523 15.9999 34.6668C15.9999 36.0813 16.5618 37.4379 17.562 38.4381C18.5622 39.4383 19.9188 40.0002 21.3333 40.0002C22.7477 40.0002 24.1043 39.4383 25.1045 38.4381C26.1047 37.4379 26.6666 36.0813 26.6666 34.6668C26.6666 33.2523 26.1047 31.8958 25.1045 30.8956C24.1043 29.8954 22.7477 29.3335 21.3333 29.3335ZM42.6666 29.3335C41.2521 29.3335 39.8955 29.8954 38.8954 30.8956C37.8952 31.8958 37.3333 33.2523 37.3333 34.6668C37.3333 36.0813 37.8952 37.4379 38.8954 38.4381C39.8955 39.4383 41.2521 40.0002 42.6666 40.0002C44.0811 40.0002 45.4376 39.4383 46.4378 38.4381C47.438 37.4379 47.9999 36.0813 47.9999 34.6668C47.9999 33.2523 47.438 31.8958 46.4378 30.8956C45.4376 29.8954 44.0811 29.3335 42.6666 29.3335Z" fill="#691111"/>
</g>
<defs>
<clipPath id="clip0_278_1425">
<rect width="64" height="64" fill="white"/>
</clipPath>
</defs>
</svg>
