<svg width="64" height="64" viewBox="0 0 64 64" fill="none" xmlns="http://www.w3.org/2000/svg">
<g clip-path="url(#clip0_278_1381)">
<path d="M31.9999 58.6663C17.2719 58.6663 5.33325 46.7277 5.33325 31.9997C5.33325 17.2717 17.2719 5.33301 31.9999 5.33301C46.7279 5.33301 58.6666 17.2717 58.6666 31.9997C58.6666 46.7277 46.7279 58.6663 31.9999 58.6663ZM18.6666 34.6663C18.6666 38.2026 20.0713 41.5939 22.5718 44.0944C25.0723 46.5949 28.4637 47.9997 31.9999 47.9997C35.5361 47.9997 38.9275 46.5949 41.428 44.0944C43.9285 41.5939 45.3333 38.2026 45.3333 34.6663H39.9999C39.9999 36.7881 39.1571 38.8229 37.6568 40.3232C36.1565 41.8235 34.1217 42.6663 31.9999 42.6663C29.8782 42.6663 27.8434 41.8235 26.3431 40.3232C24.8428 38.8229 23.9999 36.7881 23.9999 34.6663H18.6666ZM21.3333 29.333C22.3941 29.333 23.4115 28.9116 24.1617 28.1614C24.9118 27.4113 25.3333 26.3939 25.3333 25.333C25.3333 24.2721 24.9118 23.2547 24.1617 22.5046C23.4115 21.7544 22.3941 21.333 21.3333 21.333C20.2724 21.333 19.255 21.7544 18.5048 22.5046C17.7547 23.2547 17.3333 24.2721 17.3333 25.333C17.3333 26.3939 17.7547 27.4113 18.5048 28.1614C19.255 28.9116 20.2724 29.333 21.3333 29.333ZM42.6666 29.333C43.7275 29.333 44.7449 28.9116 45.495 28.1614C46.2452 27.4113 46.6666 26.3939 46.6666 25.333C46.6666 24.2721 46.2452 23.2547 45.495 22.5046C44.7449 21.7544 43.7275 21.333 42.6666 21.333C41.6057 21.333 40.5883 21.7544 39.8382 22.5046C39.088 23.2547 38.6666 24.2721 38.6666 25.333C38.6666 26.3939 39.088 27.4113 39.8382 28.1614C40.5883 28.9116 41.6057 29.333 42.6666 29.333Z" fill="#293256"/>
</g>
<defs>
<clipPath id="clip0_278_1381">
<rect width="64" height="64" fill="white"/>
</clipPath>
</defs>
</svg>
