<svg width="172" height="172" viewBox="0 0 172 172" fill="none" xmlns="http://www.w3.org/2000/svg">
<path d="M126.79 109.66L133.37 62.8202C133.57 61.4202 132.92 60.0402 131.73 59.2902L94.92 36.1602C93.83 35.4802 92.46 35.4302 91.33 36.0302L47.08 59.6602C46.07 60.2002 45.38 61.1902 45.22 62.3202L38.64 109.16C38.44 110.56 39.09 111.94 40.28 112.69L77.09 135.82C78.18 136.5 79.55 136.55 80.68 135.95L124.93 112.32C125.94 111.78 126.63 110.79 126.79 109.66Z" fill="#293256"/>
<path d="M97.61 76.0002C99.52 78.5402 100.19 81.8002 99.63 85.8002C99.07 89.8002 97.43 93.1302 94.72 95.8002C92.01 98.4702 88.39 99.8002 83.86 99.8002C79.59 99.8002 76.47 98.5002 74.51 95.9002C72.54 93.3002 71.82 90.1302 72.34 86.4002C72.92 82.2702 74.56 78.8702 77.27 76.2002C79.98 73.5402 83.66 72.2002 88.33 72.2002C92.6 72.2002 95.68 73.4702 97.6 76.0002H97.61Z" fill="#FFD64F"/>
</svg>
