<svg width="173" height="48" viewBox="0 0 173 48" fill="none" xmlns="http://www.w3.org/2000/svg">
<path d="M87.4246 7.70143C87.883 8.31103 88.0438 9.09343 87.9094 10.0534C87.775 11.0134 87.3814 11.8126 86.731 12.4534C86.0806 13.0942 85.2118 13.4134 84.1246 13.4134C83.0998 13.4134 82.351 13.1014 81.8806 12.4774C81.4078 11.8534 81.235 11.0926 81.3598 10.1974C81.499 9.20623 81.8926 8.39023 82.543 7.74943C83.1934 7.11103 84.0766 6.78943 85.1974 6.78943C86.2222 6.78943 86.9614 7.09423 87.4222 7.70143H87.4246Z" fill="#FFD64F"/>
<path d="M30.5398 29.6425L32.119 18.4009C32.167 18.0649 32.011 17.7337 31.7254 17.5537L22.891 12.0025C22.6294 11.8393 22.3006 11.8273 22.0294 11.9713L11.4094 17.6425C11.167 17.7721 11.0014 18.0097 10.963 18.2809L9.38384 29.5225C9.33584 29.8585 9.49184 30.1897 9.77744 30.3697L18.6118 35.9209C18.8734 36.0841 19.2022 36.0961 19.4734 35.9521L30.0934 30.2809C30.3358 30.1513 30.5014 29.9137 30.5398 29.6425Z" fill="#293256"/>
<path d="M40.5601 8.85369C40.7833 8.85369 41.2969 8.84649 42.1009 8.82969C42.9025 8.81529 43.8001 8.80569 44.7913 8.80569C45.7825 8.80569 46.7761 8.79849 47.7697 8.78169C48.7633 8.76729 49.5817 8.75769 50.2201 8.75769C54.1249 8.75769 56.8801 9.62889 58.4929 11.3737C60.1033 13.1185 60.6961 15.5113 60.2689 18.5497C60.0625 20.0209 59.6161 21.3745 58.9297 22.6057C58.2433 23.8369 57.3361 24.9025 56.2009 25.7977C55.0681 26.6929 53.7217 27.3889 52.1641 27.8857C50.6065 28.3825 48.8353 28.6297 46.8505 28.6297H43.4905L41.7025 41.3497H35.9905L40.5577 8.85369H40.5601ZM44.0929 24.3577H47.7889C49.8049 24.3577 51.3193 23.8297 52.3321 22.7737C53.3449 21.7177 53.9641 20.3737 54.1945 18.7417C54.2977 18.0049 54.3025 17.2873 54.2113 16.5817C54.1177 15.8785 53.8777 15.2449 53.4937 14.6857C53.1073 14.1265 52.5481 13.6777 51.8113 13.3417C51.0745 13.0057 50.1145 12.8377 48.9313 12.8377H47.0833C46.5553 12.8377 46.0969 12.8545 45.7081 12.8857L44.0953 24.3577H44.0929Z" fill="#060606"/>
<path d="M72.0456 22.8694C71.4288 23.1574 70.8624 23.551 70.344 24.0454C69.8256 24.5422 69.3744 25.1422 68.988 25.8454C68.6016 26.5486 68.3472 27.3334 68.2248 28.1974L66.3768 41.3494H60.9048L62.604 29.2534C62.8728 27.3334 62.9712 25.7254 62.8992 24.4294C62.8248 23.1334 62.7 22.0846 62.5248 21.2854C62.304 20.3566 62.0256 19.6054 61.6896 19.0294L66.252 17.3014C66.4896 17.6542 66.7344 18.0862 66.9816 18.5974C67.1736 19.0462 67.356 19.5742 67.5264 20.1814C67.6968 20.791 67.8024 21.5086 67.8456 22.3414C68.7456 20.4862 69.8616 19.1494 71.1936 18.3334C72.5232 17.5174 73.9584 17.1094 75.4944 17.1094C76.2288 17.1094 76.9056 17.1982 77.52 17.3734C78.1344 17.5486 78.4272 17.6374 78.396 17.6374L76.1112 22.9654C76.1424 22.9654 75.972 22.8766 75.5952 22.7014C75.2208 22.5262 74.6328 22.4374 73.8312 22.4374C73.2552 22.4374 72.66 22.5814 72.0432 22.8694H72.0456Z" fill="#060606"/>
<path d="M79.0415 40.0294C78.2879 39.0214 78.0215 37.7182 78.2471 36.1174L80.8703 17.4454H86.3423L83.7863 35.6374C83.6831 36.3742 83.7239 36.8686 83.9135 37.1254C84.1007 37.3822 84.4199 37.5094 84.8663 37.5094H85.2743C85.4183 37.5094 85.5575 37.4926 85.6895 37.4614C85.8167 37.4614 85.9631 37.4446 86.1287 37.4134L86.2199 40.8694C85.9775 40.9966 85.6727 41.1094 85.3079 41.2054C85.0079 41.3014 84.6359 41.3806 84.1943 41.4454C83.7527 41.5078 83.2607 41.5414 82.7159 41.5414C81.0191 41.5414 79.7951 41.0374 79.0415 40.0294Z" fill="#060606"/>
<path d="M97.4711 41.3066C94.6439 41.2586 89.3447 40.2842 89.3447 40.2842C91.1999 30.0002 93.1847 19.1642 92.0351 7.97542L96.1703 6.45862C97.0247 12.4442 96.5375 18.1874 95.9999 23.045C97.7879 19.5362 100.039 17.3714 103.181 17.3282C105.955 17.2898 108.523 18.9218 109.704 21.4346C113.311 29.1026 106.529 41.9042 97.4711 41.3066ZM101.107 20.609C94.7807 22.577 94.6559 32.3066 93.7535 37.793C98.1671 39.3314 102.833 37.7834 104.458 33.017C105.907 29.3354 107.686 19.0706 101.105 20.609H101.107Z" fill="#060606"/>
<path d="M23.5366 21.5642C23.995 22.1738 24.1558 22.9562 24.0214 23.9162C23.887 24.8762 23.4934 25.6754 22.843 26.3162C22.1926 26.957 21.3238 27.2762 20.2366 27.2762C19.2118 27.2762 18.463 26.9642 17.9926 26.3402C17.5198 25.7162 17.347 24.9554 17.4718 24.0602C17.611 23.069 18.0046 22.253 18.655 21.6122C19.3054 20.9738 20.1886 20.6522 21.3094 20.6522C22.3342 20.6522 23.0734 20.957 23.5342 21.5642H23.5366Z" fill="#FFD64F"/>
<path d="M134.045 32.8441C132.557 34.3681 130.817 35.6617 128.842 36.6433C128.774 36.6889 127.291 37.2721 126.622 37.4809C125.902 37.7137 125.114 37.9177 124.277 38.0833C123.43 38.2513 122.628 38.3377 121.894 38.3377C120.864 38.3377 120.005 38.1721 119.345 37.8481C118.668 37.5169 118.138 37.0561 117.763 36.4801C117.401 35.9209 117.151 35.2681 117.029 34.5361C116.911 33.8425 116.856 33.0961 116.866 32.3185L116.873 31.8529L117.338 31.8457C119.405 31.8145 121.322 31.5649 123.041 31.1041C124.75 30.6457 126.259 30.0217 127.526 29.2489C128.779 28.4857 129.794 27.5905 130.543 26.5825C131.28 25.5937 131.731 24.5377 131.885 23.4505C132.014 22.5337 131.993 21.6673 131.82 20.8777C131.654 20.1145 131.318 19.4473 130.824 18.8929C130.325 18.3337 129.626 17.8849 128.748 17.5537C127.848 17.2153 126.694 17.0449 125.321 17.0449C123.756 17.0449 122.239 17.3233 120.811 17.8705C119.388 18.4153 118.085 19.2409 116.938 20.3185C115.788 21.3985 114.799 22.7617 114.002 24.3673C113.304 25.7761 112.79 27.4009 112.471 29.2105C110.923 29.0881 109.38 28.8937 107.854 28.6321L107.446 30.9985C109.01 31.2673 110.592 31.4665 112.178 31.5961C112.099 32.7313 112.116 33.7945 112.234 34.7689C112.402 36.1561 112.812 37.3561 113.453 38.3329C114.084 39.2953 114.984 40.0537 116.129 40.5841C117.293 41.1217 118.783 41.3953 120.559 41.3953C121.735 41.3953 122.88 41.2825 123.967 41.0617C125.059 40.8409 126.048 40.5889 126.905 40.2913C128.978 39.5737 129.83 39.1033 130.061 38.9857C131.983 38.0041 133.68 36.7969 135.154 35.4097L134.042 32.8441H134.045ZM117.221 28.7209C117.398 27.6937 117.65 26.6593 117.972 25.6465C118.298 24.6145 118.745 23.6689 119.294 22.8337C119.856 21.9841 120.55 21.2809 121.361 20.7409C122.196 20.1841 123.202 19.9009 124.349 19.9009C125.39 19.9009 126.202 20.2489 126.761 20.9353C127.31 21.6121 127.51 22.5025 127.358 23.5801C127.267 24.2353 127.006 24.8953 126.581 25.5409C126.161 26.1793 125.546 26.7745 124.754 27.3121C123.977 27.8425 122.993 28.2913 121.829 28.6465C120.672 28.9993 119.287 29.2129 117.71 29.2777L117.118 29.3017L117.218 28.7161L117.221 28.7209Z" fill="#060606"/>
<path d="M153.684 33.8834C152.434 34.9946 151.032 35.957 149.486 36.7274C149.419 36.773 147.936 37.3562 147.266 37.565C146.546 37.7978 145.759 38.0018 144.922 38.1674C144.074 38.3354 143.273 38.4218 142.538 38.4218C141.509 38.4218 140.65 38.2562 139.99 37.9322C139.313 37.601 138.782 37.1402 138.408 36.5642C138.046 36.005 137.796 35.3522 137.674 34.6202C137.556 33.9266 137.501 33.1802 137.51 32.4026L137.518 31.937L137.983 31.9298C140.05 31.8986 141.967 31.649 143.686 31.1882C145.394 30.7298 146.904 30.1058 148.171 29.333C149.424 28.5698 150.439 27.6746 151.188 26.6666C151.925 25.6778 152.376 24.6218 152.53 23.5346C152.659 22.6178 152.638 21.7514 152.465 20.9618C152.299 20.1986 151.963 19.5314 151.469 18.977C150.97 18.4178 150.271 17.969 149.393 17.6378C148.493 17.2994 147.338 17.129 145.966 17.129C144.401 17.129 142.884 17.4074 141.456 17.9546C140.033 18.4994 138.73 19.325 137.582 20.4026C136.433 21.4826 135.444 22.8458 134.647 24.4514C133.848 26.0594 133.291 27.953 132.994 30.0818C132.749 31.8266 132.71 33.4322 132.883 34.853C133.051 36.2402 133.462 37.4402 134.102 38.417C134.734 39.3794 135.634 40.1378 136.778 40.6682C137.942 41.2058 139.433 41.4794 141.209 41.4794C142.385 41.4794 143.53 41.3666 144.617 41.1458C145.709 40.925 146.698 40.673 147.554 40.3754C149.628 39.6578 150.48 39.1874 150.71 39.0698C152.563 38.1242 154.202 36.9674 155.64 35.6426L153.689 33.8858L153.684 33.8834ZM137.863 28.805C138.041 27.7778 138.293 26.7434 138.614 25.7306C138.941 24.6986 139.387 23.753 139.937 22.9178C140.498 22.0682 141.192 21.365 142.003 20.825C142.838 20.2682 143.844 19.985 144.991 19.985C146.033 19.985 146.844 20.333 147.403 21.0194C147.953 21.6962 148.152 22.5866 148.001 23.6642C147.91 24.3194 147.648 24.9794 147.223 25.625C146.803 26.2634 146.189 26.8586 145.397 27.3962C144.619 27.9266 143.635 28.3754 142.471 28.7306C141.314 29.0834 139.93 29.297 138.353 29.3618L137.76 29.3858L137.861 28.8002L137.863 28.805Z" fill="#060606"/>
<path d="M156.146 31.2578L158.073 32.993C159.468 31.2098 160.581 29.2322 161.426 27.1274L158.99 26.429C158.249 28.1594 157.298 29.7866 156.146 31.2578Z" fill="#060606"/>
<path d="M163.425 17.0327L160.927 17.2079C160.901 17.9495 160.853 18.6887 160.776 19.4231C160.658 20.6399 160.447 21.8399 160.147 23.0159L162.54 23.7023C163.085 21.5423 163.377 19.3007 163.425 17.0351V17.0327Z" fill="#060606"/>
</svg>
