<svg width="145" height="40" viewBox="0 0 145 40" fill="none" xmlns="http://www.w3.org/2000/svg">
<path d="M73.2537 6.41796C73.6357 6.92596 73.7697 7.57796 73.6577 8.37796C73.5457 9.17796 73.2177 9.84396 72.6757 10.378C72.1337 10.912 71.4097 11.178 70.5037 11.178C69.6497 11.178 69.0257 10.918 68.6337 10.398C68.2397 9.87796 68.0957 9.24396 68.1997 8.49796C68.3157 7.67196 68.6437 6.99196 69.1857 6.45796C69.7277 5.92596 70.4637 5.65796 71.3977 5.65796C72.2517 5.65796 72.8677 5.91196 73.2517 6.41796H73.2537Z" fill="#FFD64F"/>
<path d="M25.8496 24.7021L27.1656 15.3341C27.2056 15.0541 27.0756 14.7781 26.8376 14.6281L19.4756 10.0021C19.2576 9.86605 18.9836 9.85605 18.7576 9.97605L9.90757 14.7021C9.70557 14.8101 9.56757 15.0081 9.53557 15.2341L8.21957 24.6021C8.17957 24.8821 8.30957 25.1581 8.54757 25.3081L15.9096 29.9341C16.1276 30.0701 16.4016 30.0801 16.6276 29.9601L25.4776 25.2341C25.6796 25.1261 25.8176 24.9281 25.8496 24.7021Z" fill="#293256"/>
<path d="M34.1996 7.3781C34.3856 7.3781 34.8136 7.3721 35.4836 7.3581C36.1516 7.3461 36.8996 7.3381 37.7256 7.3381C38.5516 7.3381 39.3796 7.3321 40.2076 7.3181C41.0356 7.3061 41.7176 7.2981 42.2496 7.2981C45.5036 7.2981 47.7996 8.0241 49.1436 9.4781C50.4856 10.9321 50.9796 12.9261 50.6236 15.4581C50.4516 16.6841 50.0796 17.8121 49.5076 18.8381C48.9356 19.8641 48.1796 20.7521 47.2336 21.4981C46.2896 22.2441 45.1676 22.8241 43.8696 23.2381C42.5716 23.6521 41.0956 23.8581 39.4416 23.8581H36.6416L35.1516 34.4581H30.3916L34.1976 7.3781H34.1996ZM37.1436 20.2981H40.2236C41.9036 20.2981 43.1656 19.8581 44.0096 18.9781C44.8536 18.0981 45.3696 16.9781 45.5616 15.6181C45.6476 15.0041 45.6516 14.4061 45.5756 13.8181C45.4976 13.2321 45.2976 12.7041 44.9776 12.2381C44.6556 11.7721 44.1896 11.3981 43.5756 11.1181C42.9616 10.8381 42.1616 10.6981 41.1756 10.6981H39.6356C39.1956 10.6981 38.8136 10.7121 38.4896 10.7381L37.1456 20.2981H37.1436Z" fill="#060606"/>
<path d="M60.4378 19.0579C59.9238 19.2979 59.4518 19.6259 59.0198 20.0379C58.5878 20.4519 58.2118 20.9519 57.8898 21.5379C57.5678 22.1239 57.3558 22.7779 57.2538 23.4979L55.7138 34.4579H51.1538L52.5698 24.3779C52.7938 22.7779 52.8758 21.4379 52.8158 20.3579C52.7538 19.2779 52.6498 18.4039 52.5038 17.7379C52.3198 16.9639 52.0878 16.3379 51.8078 15.8579L55.6098 14.4179C55.8078 14.7119 56.0118 15.0719 56.2178 15.4979C56.3778 15.8719 56.5298 16.3119 56.6718 16.8179C56.8138 17.3259 56.9018 17.9239 56.9378 18.6179C57.6878 17.0719 58.6178 15.9579 59.7278 15.2779C60.8358 14.5979 62.0318 14.2579 63.3118 14.2579C63.9238 14.2579 64.4878 14.3319 64.9998 14.4779C65.5118 14.6239 65.7558 14.6979 65.7298 14.6979L63.8258 19.1379C63.8518 19.1379 63.7098 19.0639 63.3958 18.9179C63.0838 18.7719 62.5938 18.6979 61.9258 18.6979C61.4458 18.6979 60.9498 18.8179 60.4358 19.0579H60.4378Z" fill="#060606"/>
<path d="M66.2677 33.3581C65.6397 32.5181 65.4177 31.4321 65.6057 30.0981L67.7917 14.5381H72.3517L70.2217 29.6981C70.1357 30.3121 70.1697 30.7241 70.3277 30.9381C70.4837 31.1521 70.7497 31.2581 71.1217 31.2581H71.4617C71.5817 31.2581 71.6977 31.2441 71.8077 31.2181C71.9137 31.2181 72.0357 31.2041 72.1737 31.1781L72.2497 34.0581C72.0477 34.1641 71.7937 34.2581 71.4897 34.3381C71.2397 34.4181 70.9297 34.4841 70.5617 34.5381C70.1937 34.5901 69.7837 34.6181 69.3297 34.6181C67.9157 34.6181 66.8957 34.1981 66.2677 33.3581Z" fill="#060606"/>
<path d="M81.626 34.4221C79.27 34.3821 74.854 33.5701 74.854 33.5701C76.4 25.0001 78.054 15.9701 77.096 6.64608L80.542 5.38208C81.254 10.3701 80.848 15.1561 80.4 19.2041C81.89 16.2801 83.766 14.4761 86.384 14.4401C88.696 14.4081 90.836 15.7681 91.82 17.8621C94.826 24.2521 89.174 34.9201 81.626 34.4221ZM84.656 17.1741C79.384 18.8141 79.28 26.9221 78.528 31.4941C82.206 32.7761 86.094 31.4861 87.448 27.5141C88.656 24.4461 90.138 15.8921 84.654 17.1741H84.656Z" fill="#060606"/>
<path d="M20.0139 17.97C20.3959 18.478 20.5299 19.13 20.4179 19.93C20.3059 20.73 19.9779 21.396 19.4359 21.93C18.8939 22.464 18.1699 22.73 17.2639 22.73C16.4099 22.73 15.7859 22.47 15.3939 21.95C14.9999 21.43 14.8559 20.796 14.9599 20.05C15.0759 19.224 15.4039 18.544 15.9459 18.01C16.4879 17.478 17.2239 17.21 18.1579 17.21C19.0119 17.21 19.6279 17.464 20.0119 17.97H20.0139Z" fill="#FFD64F"/>
<path d="M112.104 27.37C110.864 28.64 109.414 29.718 107.768 30.536C107.712 30.574 106.476 31.06 105.918 31.234C105.318 31.428 104.662 31.598 103.964 31.736C103.258 31.876 102.59 31.948 101.978 31.948C101.12 31.948 100.403 31.81 99.8535 31.54C99.2895 31.264 98.8475 30.88 98.5355 30.4C98.2335 29.934 98.0255 29.39 97.9235 28.78C97.8255 28.202 97.7795 27.58 97.7875 26.932L97.7935 26.544L98.1815 26.538C99.9035 26.512 101.501 26.304 102.933 25.92C104.357 25.538 105.615 25.018 106.671 24.374C107.715 23.738 108.561 22.992 109.185 22.152C109.799 21.328 110.176 20.448 110.304 19.542C110.412 18.778 110.393 18.056 110.25 17.398C110.111 16.762 109.831 16.206 109.419 15.744C109.003 15.278 108.422 14.904 107.69 14.628C106.94 14.346 105.977 14.204 104.833 14.204C103.529 14.204 102.266 14.436 101.076 14.892C99.8895 15.346 98.8035 16.034 97.8475 16.932C96.8895 17.832 96.0655 18.968 95.4015 20.306C94.8195 21.48 94.3915 22.834 94.1255 24.342C92.8355 24.24 91.5495 24.078 90.2775 23.86L89.9375 25.832C91.2415 26.056 92.5595 26.222 93.8815 26.33C93.8155 27.276 93.8295 28.162 93.9275 28.974C94.0675 30.13 94.4095 31.13 94.9435 31.944C95.4695 32.746 96.2195 33.378 97.1735 33.82C98.1435 34.268 99.3855 34.496 100.865 34.496C101.845 34.496 102.8 34.402 103.706 34.218C104.616 34.034 105.44 33.824 106.154 33.576C107.882 32.978 108.591 32.586 108.783 32.488C110.385 31.67 111.8 30.664 113.028 29.508L112.102 27.37H112.104ZM98.0835 23.934C98.2315 23.078 98.4415 22.216 98.7095 21.372C98.9815 20.512 99.3535 19.724 99.8115 19.028C100.279 18.32 100.858 17.734 101.534 17.284C102.23 16.82 103.067 16.584 104.023 16.584C104.891 16.584 105.567 16.874 106.033 17.446C106.491 18.01 106.657 18.752 106.531 19.65C106.455 20.196 106.237 20.746 105.883 21.284C105.533 21.816 105.021 22.312 104.361 22.76C103.713 23.202 102.893 23.576 101.923 23.872C100.959 24.166 99.8055 24.344 98.4915 24.398L97.9975 24.418L98.0815 23.93L98.0835 23.934Z" fill="#060606"/>
<path d="M128.47 28.236C127.428 29.162 126.26 29.964 124.972 30.606C124.916 30.644 123.68 31.13 123.122 31.304C122.522 31.498 121.866 31.668 121.168 31.806C120.462 31.946 119.794 32.018 119.182 32.018C118.324 32.018 117.608 31.88 117.058 31.61C116.494 31.334 116.052 30.95 115.74 30.47C115.438 30.004 115.23 29.46 115.128 28.85C115.03 28.272 114.984 27.65 114.992 27.002L114.998 26.614L115.386 26.608C117.108 26.582 118.706 26.374 120.138 25.99C121.562 25.608 122.82 25.088 123.876 24.444C124.92 23.808 125.766 23.062 126.39 22.222C127.004 21.398 127.38 20.518 127.508 19.612C127.616 18.848 127.598 18.126 127.454 17.468C127.316 16.832 127.036 16.276 126.624 15.814C126.208 15.348 125.626 14.974 124.894 14.698C124.144 14.416 123.182 14.274 122.038 14.274C120.734 14.274 119.47 14.506 118.28 14.962C117.094 15.416 116.008 16.104 115.052 17.002C114.094 17.902 113.27 19.038 112.606 20.376C111.94 21.716 111.476 23.294 111.228 25.068C111.024 26.522 110.992 27.86 111.136 29.044C111.276 30.2 111.618 31.2 112.152 32.014C112.678 32.816 113.428 33.448 114.382 33.89C115.352 34.338 116.594 34.566 118.074 34.566C119.054 34.566 120.008 34.472 120.914 34.288C121.824 34.104 122.648 33.894 123.362 33.646C125.09 33.048 125.8 32.656 125.992 32.558C127.536 31.77 128.902 30.806 130.1 29.702L128.474 28.238L128.47 28.236ZM115.286 24.004C115.434 23.148 115.644 22.286 115.912 21.442C116.184 20.582 116.556 19.794 117.014 19.098C117.482 18.39 118.06 17.804 118.736 17.354C119.432 16.89 120.27 16.654 121.226 16.654C122.094 16.654 122.77 16.944 123.236 17.516C123.694 18.08 123.86 18.822 123.734 19.72C123.658 20.266 123.44 20.816 123.086 21.354C122.736 21.886 122.224 22.382 121.564 22.83C120.916 23.272 120.096 23.646 119.126 23.942C118.162 24.236 117.008 24.414 115.694 24.468L115.2 24.488L115.284 24L115.286 24.004Z" fill="#060606"/>
<path d="M130.522 26.0479L132.128 27.4939C133.29 26.0079 134.218 24.3599 134.922 22.6059L132.892 22.0239C132.274 23.4659 131.482 24.8219 130.522 26.0479Z" fill="#060606"/>
<path d="M136.587 14.194L134.505 14.34C134.483 14.958 134.443 15.574 134.379 16.186C134.281 17.2 134.105 18.2 133.855 19.18L135.849 19.752C136.303 17.952 136.547 16.084 136.587 14.196V14.194Z" fill="#060606"/>
</svg>
